<svg width="94" height="14" viewBox="0 0 94 14" fill="none" xmlns="http://www.w3.org/2000/svg">
<g clip-path="url(#clip0_4_1170)">
<path d="M3.16051 13.5126C2.82276 13.6859 2.43951 13.3823 2.50776 12.9946L3.23401 8.85589L0.151387 5.91939C-0.136488 5.64464 0.0131369 5.14239 0.399012 5.08814L4.68476 4.47914L6.59576 0.69301C6.76814 0.35176 7.23451 0.35176 7.40689 0.69301L9.31789 4.47914L13.6036 5.08814C13.9895 5.14239 14.1391 5.64464 13.8504 5.91939L10.7686 8.85589L11.4949 12.9946C11.5631 13.3823 11.1799 13.6859 10.8421 13.5126L7.00001 11.5386L3.15964 13.5126H3.16051Z" fill="#FFC700"/>
</g>
<g clip-path="url(#clip1_4_1170)">
<path d="M23.1605 13.5126C22.8228 13.6859 22.4395 13.3823 22.5078 12.9946L23.234 8.85589L20.1514 5.91939C19.8635 5.64464 20.0131 5.14239 20.399 5.08814L24.6848 4.47914L26.5958 0.69301C26.7681 0.35176 27.2345 0.35176 27.4069 0.69301L29.3179 4.47914L33.6036 5.08814C33.9895 5.14239 34.1391 5.64464 33.8504 5.91939L30.7686 8.85589L31.4949 12.9946C31.5631 13.3823 31.1799 13.6859 30.8421 13.5126L27 11.5386L23.1596 13.5126H23.1605Z" fill="#FFC700"/>
</g>
<g clip-path="url(#clip2_4_1170)">
<path d="M43.1605 13.5126C42.8228 13.6859 42.4395 13.3823 42.5078 12.9946L43.234 8.85589L40.1514 5.91939C39.8635 5.64464 40.0131 5.14239 40.399 5.08814L44.6848 4.47914L46.5958 0.69301C46.7681 0.35176 47.2345 0.35176 47.4069 0.69301L49.3179 4.47914L53.6036 5.08814C53.9895 5.14239 54.1391 5.64464 53.8504 5.91939L50.7686 8.85589L51.4949 12.9946C51.5631 13.3823 51.1799 13.6859 50.8421 13.5126L47 11.5386L43.1596 13.5126H43.1605Z" fill="#FFC700"/>
</g>
<g clip-path="url(#clip3_4_1170)">
<path d="M63.1605 13.5126C62.8228 13.6859 62.4395 13.3823 62.5078 12.9946L63.234 8.85589L60.1514 5.91939C59.8635 5.64464 60.0131 5.14239 60.399 5.08814L64.6848 4.47914L66.5958 0.69301C66.7681 0.35176 67.2345 0.35176 67.4069 0.69301L69.3179 4.47914L73.6036 5.08814C73.9895 5.14239 74.1391 5.64464 73.8504 5.91939L70.7686 8.85589L71.4949 12.9946C71.5631 13.3823 71.1799 13.6859 70.8421 13.5126L67 11.5386L63.1596 13.5126H63.1605Z" fill="#FFC700"/>
</g>
<g clip-path="url(#clip4_4_1170)">
<path d="M84.6847 4.47913L86.5957 0.693C86.6324 0.616834 86.6898 0.552504 86.7613 0.507333C86.8327 0.462163 86.9154 0.437967 87 0.4375C87.1601 0.4375 87.3202 0.522375 87.4069 0.693L89.3179 4.47913L93.6036 5.08813C93.7104 5.10492 93.8082 5.15805 93.8804 5.23854C93.9526 5.31904 93.9949 5.42198 94 5.53C94.0061 5.60191 93.9959 5.67428 93.9701 5.7417C93.9444 5.80912 93.9037 5.86985 93.8512 5.91937L90.7686 8.85588L91.4949 12.9946C91.5631 13.3822 91.1799 13.6859 90.8421 13.5126L87 11.5386L83.1596 13.5126C83.1194 13.5335 83.0764 13.5482 83.0319 13.5564C82.7326 13.6089 82.4474 13.3341 82.5069 12.9946L83.2331 8.85588L80.1514 5.91937C80.1035 5.87405 80.0654 5.81936 80.0395 5.7587C80.0136 5.69804 80.0004 5.6327 80.0009 5.56675C80.0009 5.47351 80.0266 5.38208 80.0752 5.3025C80.1097 5.24481 80.1567 5.1956 80.2127 5.15849C80.2688 5.12139 80.3324 5.09734 80.399 5.08813L84.6847 4.47913ZM87 10.5236C87.0706 10.5233 87.1403 10.5401 87.203 10.5726L90.4282 12.2299L89.821 8.7675C89.8067 8.68787 89.8121 8.60594 89.8368 8.5289C89.8615 8.45185 89.9048 8.38206 89.9627 8.32563L92.5064 5.90188L88.9609 5.39788C88.8874 5.38679 88.8178 5.35807 88.7579 5.31418C88.698 5.27029 88.6497 5.21254 88.617 5.14587L87.0009 1.94513L87 1.94775V10.5227V10.5236Z" fill="#FFC700"/>
</g>
<defs>
<clipPath id="clip0_4_1170">
<rect width="14" height="14" fill="white"/>
</clipPath>
<clipPath id="clip1_4_1170">
<rect width="14" height="14" fill="white" transform="translate(20)"/>
</clipPath>
<clipPath id="clip2_4_1170">
<rect width="14" height="14" fill="white" transform="translate(40)"/>
</clipPath>
<clipPath id="clip3_4_1170">
<rect width="14" height="14" fill="white" transform="translate(60)"/>
</clipPath>
<clipPath id="clip4_4_1170">
<rect width="14" height="14" fill="white" transform="translate(80)"/>
</clipPath>
</defs>
</svg>
