<svg width="48" height="48" viewBox="0 0 48 48" fill="none" xmlns="http://www.w3.org/2000/svg">
<path d="M30.9042 20.662C31.1109 19.5125 30.6168 17.9313 30.553 17.1633C30.6 16.061 30.0741 15.167 30.1379 14.799C30.3144 14.4478 30.1379 13.8411 30.0102 13.1538C29.9631 11.381 29.6119 11.381 29.3884 11.3171C28.9398 10.8684 26.9283 10.1022 26.7838 10.1022C26.6409 10.1022 25.8898 9.20819 25.8427 9.03175C26.0343 8.47216 25.5167 8.13104 25.3487 8.27556C25.6848 8.40327 25.5705 9.35271 25.5537 9.60645C25.4092 9.49386 25.0109 9.41488 24.8832 9.74929C24.7555 10.4215 24.4043 11.2197 24.2447 11.507C24.085 11.7944 23.4145 13.5034 23.0633 14.2226C22.9827 13.9503 22.8718 12.9757 22.744 12.6094C22.408 12.3052 22.0265 11.507 21.9627 11.2045C22.0097 10.8533 21.8181 9.59133 21.8988 9.36783C21.9778 9.14433 22.0584 8.72927 22.0584 8.72927C22.0584 8.73095 22.0584 8.73095 22.0584 8.73263C22.0584 8.73263 22.0584 8.73095 22.0601 8.73095L22.0752 8.79145C22.0752 8.79145 22.3928 9.46529 22.8079 9.68711C22.9995 9.86356 23.0532 9.89884 23.1558 9.90389C23.4112 9.91565 23.7825 9.7997 24.1018 9.51235C24.4194 9.22667 24.6043 9.23004 25.2479 8.46376C25.2479 8.4604 25.2479 8.45704 25.2479 8.45368C25.2848 8.44024 25.2764 8.3142 25.3117 8.25203C25.3369 8.21002 25.342 8.05542 25.3403 7.90754C25.4512 7.98484 25.6109 7.63531 25.6982 7.29251C25.8478 6.78166 25.6361 6.56656 25.4899 6.54136C25.4815 6.49263 25.4378 6.3834 25.4075 6.35987C25.4025 6.35651 25.3874 6.32122 25.3756 6.29938C25.4479 6.212 25.6293 5.9885 25.7856 5.72635C26.0965 4.95168 24.9404 4.47276 24.6194 4.36017C24.3976 4.28287 23.8279 4.20557 23.3624 4.18708C23.3591 4.13835 23.2364 4.09802 23.0818 4.09802C22.9255 4.09802 22.7978 4.14003 22.7978 4.19045C22.7978 4.19885 22.818 4.20389 22.8247 4.21229C22.1895 4.38201 21.4384 5.12308 21.3275 5.24911C21.2165 5.37682 20.9124 5.51294 20.9359 5.95993C21.0233 6.83039 21.1678 6.8472 21.4064 6.89425C21.4064 6.94298 21.5425 7.02196 21.5425 7.02196C21.5459 7.02364 21.5526 7.01692 21.556 7.01692C21.5577 7.34628 21.5896 7.54625 21.6955 7.53281C21.6955 7.69245 21.9996 8.57131 22.0551 8.73095C22.0551 8.73095 21.5442 8.85866 21.4316 9.13089C21.5274 9.16282 21.7022 9.86524 21.6551 9.88204C21.6081 9.89884 21.1594 9.83499 21.1594 9.83499C21.1594 9.83499 21.1275 10.1862 21.1913 10.4097C20.378 10.6786 19.3866 11.3978 19.116 11.5742C18.8455 11.749 19.0522 13.4429 18.9093 13.905C18.7648 14.352 18.5413 15.7736 18.5413 16.1887C18.5413 16.6037 17.9851 18.1783 17.9263 18.6572C17.8658 19.1361 17.2071 21.5207 17.1348 21.8803C17.0625 22.2399 16.871 23.7254 16.7869 24.0245C16.7046 24.3186 16.9953 24.4496 17.0054 24.453C16.9567 24.8025 16.9197 25.1773 16.9583 25.31C17.0373 25.5806 17.2289 26.2998 17.3264 26.5233C17.4221 26.7468 18.0775 27.6088 18.3481 27.4492C18.4287 27.3383 18.4119 27.1938 18.4119 27.1938C18.4119 27.1938 18.748 27.1467 18.4119 26.8258C18.6354 26.73 18.6203 26.4745 18.1733 26.2981C17.8389 26.1553 17.7582 26.0107 17.8221 25.3873C17.9179 25.2915 18.1094 25.2445 18.1094 25.2445C18.1094 25.2445 18.3178 25.9956 18.5716 25.9956C18.827 25.9956 18.9228 25.7402 18.7951 25.4041C18.6724 25.0815 18.7799 24.616 18.6455 24.3387C18.6522 24.3421 18.664 24.3522 18.6657 24.3522C18.7262 24.3522 19.0017 23.5439 19.2773 22.9675C19.1698 23.6632 19.4454 25.5436 19.3731 25.9267C19.3009 26.3099 19.0975 28.9212 19.0975 29.1968C19.0975 29.2456 19.1765 29.2842 19.2841 29.3161C19.1647 30.0622 19.237 31.6906 19.3849 31.904C19.5529 32.1443 19.6974 33.6046 20.0318 34.5876C20.3662 35.569 21.0872 38.6122 21.2065 38.7803C21.3258 38.9483 21.7324 40.5061 21.7224 40.7817C21.3863 42.0033 20.7645 42.2907 20.5948 42.4705C20.4267 42.6503 20.2721 42.6621 20.2604 43.0586C20.0318 43.5981 21.9374 43.3342 21.9374 43.3342C22.9558 43.1662 23.3036 41.9328 23.3977 41.8118C23.5154 41.753 23.5994 41.6555 23.6565 41.5698C23.6733 41.6471 23.6834 41.7277 23.7086 41.8C23.6616 42.0269 23.4935 42.6738 23.3742 42.8419C23.2549 43.0099 23.1457 43.4401 23.1457 43.7879C23.1457 44.1358 23.6145 44.1358 24.6194 44.0518C25.8898 44.0047 25.757 43.4771 25.7335 43.393C25.7083 43.309 25.8293 42.9141 25.8041 42.2924C25.7957 42.1411 25.7638 42.0185 25.7302 41.8958H25.7318C26.6174 40.7447 25.994 40.3145 25.994 39.9062C26.7838 39.0441 26.809 37.5821 27.1451 36.3134C27.4812 35.043 27.2409 32.4316 27.1686 32.072C26.9048 31.9527 27.0728 30.6823 27.1199 30.2521C27.135 30.1211 27.1249 29.9026 27.1081 29.6673C27.5265 29.6438 27.8072 29.6119 27.9265 29.59C28.1819 29.543 28.0223 26.1721 28.0374 25.8377C28.0542 25.5016 28.0374 21.3324 27.8777 21.0619C27.7097 20.0385 27.7416 18.921 27.7568 18.553C27.7719 18.185 27.9315 16.8928 28.0609 17.1952C28.1096 18.5362 28.4121 19.2874 28.5398 19.6386C28.6692 19.9898 28.6037 22.1794 28.6524 22.786C28.6995 23.3926 28.6037 24.1421 28.7953 24.3186C28.8003 24.3152 28.8053 24.3152 28.8104 24.3135C28.7667 24.4009 28.7297 24.4816 28.7163 24.5269C28.6692 24.6866 28.4777 24.8781 28.4777 25.389C28.2542 25.757 28.3029 26.0914 28.6054 26.0444C28.9095 25.9973 29.0204 25.6293 29.0204 25.6293C29.0204 25.6293 29.4825 26.0931 29.1481 26.5552C29.0204 26.6191 28.7482 26.8258 28.9885 26.9232C28.8457 27.0677 28.6054 27.0341 28.5583 27.3064C28.4155 27.5769 28.5415 27.8172 28.8927 27.6895C29.2439 27.5618 29.659 27.2744 29.8354 27.098C30.0102 26.9232 30.4908 26.1401 30.4908 25.757C30.4908 25.4344 30.5916 24.984 30.6908 24.7857C30.7613 24.8563 30.8185 24.9218 30.842 24.9756C31.1109 25.1336 30.9042 21.7307 30.9042 20.662ZM22.3105 32.4451C22.4416 32.3006 22.8012 32.1224 22.7407 30.3849C22.734 30.158 22.823 29.827 22.9121 29.5884C23.2784 29.6069 23.6599 29.6237 24.0094 29.6371C23.9909 29.8791 23.9808 30.2017 24.0968 30.5176C24.2279 31.0201 24.1438 32.5173 24.5035 32.9862C24.5152 33.129 24.443 33.5004 24.6228 33.6684C24.5387 33.8365 24.2279 34.5305 24.443 36.2916C24.4194 36.8428 24.2396 38.5433 24.4665 38.7231C24.3959 38.987 24.2396 39.155 24.0598 39.3214C24.0598 39.3214 23.8683 38.95 23.8918 38.7937C23.917 38.6391 24.3001 38.4459 23.88 38.0157C23.4599 37.5838 23.4129 37.7888 23.354 36.9974C23.2935 36.2076 22.9104 34.1944 22.8382 34.0381C22.7659 33.8819 22.7777 33.5592 22.4416 33.2114C22.6348 32.8887 22.1794 32.5896 22.3105 32.4451Z" fill="#232F3E"/>
</svg>
