<svg width="48" height="48" viewBox="0 0 48 48" fill="none" xmlns="http://www.w3.org/2000/svg">
<path d="M36.3583 12.6229L32.8817 9.14632H28.7521V6.1342H29.5431V5.29724H29.5339V2H19.61V5.29724V6.1342H20.4837V9.14632H16.0966L12.62 12.6229V40.4448L14.9055 42.7304C14.6664 43.0661 14.5284 43.4753 14.5284 43.9214C14.5284 45.0665 15.4574 46 16.6024 46C17.7475 46 18.681 45.0711 18.681 43.9214H30.357C30.357 45.0665 31.286 46 32.4356 46C33.5853 46 34.5142 45.0711 34.5142 43.9214C34.5142 43.4661 34.3625 43.0431 34.1095 42.7028L36.3675 40.4448V12.6229H36.3583ZM21.0539 6.1342H21.8265V5.29724H27.3219V6.1342H28.1773V9.14632H21.0539V6.1342ZM17.8211 22.0226L17.4256 18.9277L29.9569 17.3227L30.3524 20.4176L17.8211 22.0226ZM28.2922 23.6643C28.2922 22.5238 29.2166 21.6041 30.3524 21.6041C31.4929 21.6041 32.4126 22.5284 32.4126 23.6643C32.4126 24.8002 31.4883 25.7245 30.3524 25.7245C29.2166 25.7245 28.2922 24.8048 28.2922 23.6643Z" fill="#232F3E"/>
</svg>
