<svg width="48" height="48" viewBox="0 0 48 48" fill="none" xmlns="http://www.w3.org/2000/svg">
<path d="M40.5258 40.5124H33.4866C37.4823 38.2099 40.5042 34.5329 41.9888 30.1668C43.4734 25.8007 43.3195 21.0437 41.5556 16.7828C39.7917 12.5219 36.5384 9.04788 32.4022 7.00862C28.266 4.96937 23.5293 4.50404 19.0753 5.69942C14.6214 6.89479 10.7542 9.66926 8.19487 13.5055C5.63556 17.3417 4.55883 21.9778 5.16545 26.5493C5.77208 31.1208 8.02065 35.3157 11.4919 38.3517C14.9631 41.3877 19.4201 43.0576 24.0316 43.05H40.5258C40.8623 43.05 41.185 42.9163 41.423 42.6783C41.6609 42.4404 41.7946 42.1177 41.7946 41.7812C41.7946 41.4447 41.6609 41.122 41.423 40.884C41.185 40.6461 40.8623 40.5124 40.5258 40.5124ZM24.0316 10.0617C25.0354 10.0617 26.0166 10.3593 26.8512 10.917C27.6858 11.4746 28.3363 12.2673 28.7204 13.1946C29.1046 14.122 29.2051 15.1424 29.0092 16.1269C28.8134 17.1114 28.3301 18.0157 27.6203 18.7254C26.9105 19.4352 26.0062 19.9186 25.0217 20.1144C24.0373 20.3102 23.0168 20.2097 22.0895 19.8256C21.1621 19.4415 20.3695 18.791 19.8118 17.9564C19.2542 17.1218 18.9565 16.1406 18.9565 15.1368C18.9565 13.7908 19.4912 12.4999 20.443 11.5481C21.3948 10.5964 22.6856 10.0617 24.0316 10.0617ZM15.1502 29.0934C14.1464 29.0934 13.1652 28.7957 12.3306 28.2381C11.496 27.6804 10.8455 26.8878 10.4614 25.9604C10.0772 25.0331 9.97674 24.0126 10.1726 23.0281C10.3684 22.0437 10.8517 21.1394 11.5615 20.4296C12.2713 19.7198 13.1756 19.2365 14.1601 19.0406C15.1445 18.8448 16.165 18.9453 17.0923 19.3295C18.0197 19.7136 18.8123 20.3641 19.37 21.1987C19.9276 22.0333 20.2253 23.0145 20.2253 24.0183C20.2253 25.3643 19.6906 26.6551 18.7388 27.6069C17.7871 28.5587 16.4962 29.0934 15.1502 29.0934ZM24.0316 37.9748C23.0279 37.9748 22.0467 37.6772 21.2121 37.1195C20.3775 36.5619 19.727 35.7692 19.3428 34.8419C18.9587 33.9145 18.8582 32.8941 19.054 31.9096C19.2499 30.9251 19.7332 30.0208 20.443 29.3111C21.1528 28.6013 22.0571 28.1179 23.0415 27.9221C24.026 27.7263 25.0464 27.8268 25.9738 28.2109C26.9012 28.595 27.6938 29.2455 28.2514 30.0801C28.8091 30.9147 29.1068 31.896 29.1068 32.8997C29.1068 34.2457 28.5721 35.5366 27.6203 36.4884C26.6685 37.4401 25.3776 37.9748 24.0316 37.9748ZM27.838 24.0183C27.838 23.0145 28.1356 22.0333 28.6933 21.1987C29.251 20.3641 30.0436 19.7136 30.9709 19.3295C31.8983 18.9453 32.9187 18.8448 33.9032 19.0406C34.8877 19.2365 35.792 19.7198 36.5018 20.4296C37.2115 21.1394 37.6949 22.0437 37.8907 23.0281C38.0865 24.0126 37.986 25.0331 37.6019 25.9604C37.2178 26.8878 36.5673 27.6804 35.7327 28.2381C34.8981 28.7957 33.9169 29.0934 32.9131 29.0934C31.5671 29.0934 30.2762 28.5587 29.3244 27.6069C28.3727 26.6551 27.838 25.3643 27.838 24.0183Z" fill="#232F3E"/>
</svg>
