<svg width="48" height="48" viewBox="0 0 48 48" fill="none" xmlns="http://www.w3.org/2000/svg">
<path fill-rule="evenodd" clip-rule="evenodd" d="M40.4096 20.1829C40.3854 19.8455 40.2159 19.5351 39.9451 19.3322L34.366 15.1533C34.3981 15.0021 34.4155 14.8456 34.4155 14.685V8.25655C34.4155 7.01228 33.4031 6 32.1588 6H27.7708C26.5266 6 25.5143 7.01228 25.5143 8.25655V14.685C25.5143 14.8335 25.5296 14.9784 25.5571 15.119L19.8789 19.3287C19.6147 19.5247 19.4454 19.8228 19.4126 20.1501C19.3798 20.4774 19.4867 20.8032 19.7069 21.0477C24.5023 26.3701 25.4588 40.761 25.4679 40.9057C25.5066 41.5207 26.0166 41.9999 26.6329 41.9999H33.2483C33.8833 41.9999 34.4019 41.4922 34.4152 40.8573C34.416 40.821 34.5005 37.1798 35.2646 32.8887C36.2546 27.3285 37.9168 23.2489 40.0712 21.0911C40.3104 20.8517 40.4338 20.5203 40.4096 20.1829ZM27.8488 8.33448H32.0811V14.6072H27.8488V8.33448ZM34.6408 25.9586H24.9506C24.2339 23.9221 23.3444 22.0095 22.2427 20.4823L27.0184 16.9417H27.7708H32.1588H32.8596L37.5335 20.4425C36.3194 21.9806 35.3751 23.9074 34.6408 25.9586ZM17.5991 25.1754L17.5998 25.1653C17.6034 25.1167 17.607 25.0682 17.607 25.0188V16.3804C17.8937 14.3585 17.3574 12.2212 16.1651 10.7129C14.7589 8.9343 12.1407 7.7191 10.0723 7.88604C9.60233 7.92401 9.20141 8.241 9.056 8.68951C8.91312 9.1303 8.85072 9.57436 8.84991 10.0133C8.84473 10.0741 8.84055 10.1352 8.84055 10.1974V25.0189C8.84055 25.0666 8.84396 25.1136 8.84737 25.1604L8.84845 25.1754C7.78403 25.4703 7 26.447 7 27.604V29.4888C7 30.1159 7.2307 30.6896 7.611 31.1312V39.4799C7.611 40.8694 8.74155 42 10.131 42H16.3161C17.7057 42 18.8361 40.8694 18.8361 39.4799V31.1313C19.2164 30.6897 19.4471 30.1159 19.4471 29.4888V27.604C19.4475 26.4469 18.6636 25.4702 17.5991 25.1754ZM9.33457 29.4887V27.6039C9.33457 27.5015 9.41804 27.4182 9.52049 27.4182H16.9275C17.0298 27.4182 17.1131 27.5015 17.1131 27.6039V29.4887C17.1131 29.5912 17.0298 29.6745 16.9275 29.6745H9.52049C9.41795 29.6745 9.33457 29.5912 9.33457 29.4887ZM11.175 15.1869C12.1839 16.3179 13.646 17.385 15.2727 17.6713V24.8302H11.175V15.1869ZM16.502 39.4798C16.502 39.5821 16.4187 39.6654 16.3164 39.6654H10.1313C10.029 39.6654 9.94566 39.5821 9.94566 39.4798V32.0089H16.5021V39.4798H16.502ZM29.1705 10.5923C29.1705 10.184 29.5015 9.85305 29.9098 9.85305C30.3181 9.85305 30.649 10.184 30.649 10.5923V12.1861C30.649 12.5944 30.3181 12.9253 29.9098 12.9253C29.5015 12.9253 29.1705 12.5944 29.1705 12.1861V10.5923Z" fill="#232F3E"/>
</svg>
