<svg width="22" height="20" viewBox="0 0 22 20" fill="none" xmlns="http://www.w3.org/2000/svg">
<path fill-rule="evenodd" clip-rule="evenodd" d="M0.199986 9.85066C0.199986 10.2087 0.342201 10.552 0.595346 10.8051C0.848492 11.0583 1.19183 11.2005 1.54984 11.2005H17.1892L11.3929 16.9941C11.2674 17.1196 11.1679 17.2686 11.1 17.4325C11.032 17.5965 10.9971 17.7723 10.9971 17.9498C10.9971 18.1272 11.032 18.303 11.1 18.467C11.1679 18.6309 11.2674 18.7799 11.3929 18.9054C11.5184 19.0309 11.6674 19.1305 11.8314 19.1984C11.9954 19.2663 12.1711 19.3013 12.3486 19.3013C12.5261 19.3013 12.7019 19.2663 12.8658 19.1984C13.0298 19.1305 13.1788 19.0309 13.3043 18.9054L21.4034 10.8063C21.5291 10.681 21.6289 10.532 21.6969 10.368C21.765 10.204 21.8 10.0282 21.8 9.85066C21.8 9.67311 21.765 9.4973 21.6969 9.3333C21.6289 9.16931 21.5291 9.02035 21.4034 8.89496L13.3043 0.79587C13.0509 0.542405 12.7071 0.400009 12.3486 0.400009C11.9902 0.400009 11.6464 0.542405 11.3929 0.79587C11.1395 1.04934 10.9971 1.39311 10.9971 1.75156C10.9971 2.11002 11.1395 2.45379 11.3929 2.70726L17.1892 8.50081H1.54984C1.19183 8.50081 0.848492 8.64302 0.595346 8.89617C0.342201 9.14932 0.199986 9.49265 0.199986 9.85066Z" fill="#232F3E"/>
</svg>
